<?xml version="1.0" encoding="UTF-8"?>
<svg id="Layer_2" data-name="Layer 2" xmlns="http://www.w3.org/2000/svg" viewBox="0 0 169.88 187.48">
  <defs>
    <style>
      .cls-1 {
        fill: #fff;
      }

      .cls-2 {
        opacity: .15;
      }
    </style>
  </defs>
  <g id="Layer_1-2" data-name="Layer 1">
    <g class="cls-2">
      <path class="cls-1" d="M72.23,1.16c2.43-.4,5.15-.9,7.61-1.03,53.47-2.85,96.59,40.29,89.21,94.3-5.65,41.36-44.37,71.74-85.81,69.32-1.91-.11-9.27-.88-10.66-1.54-.26-.12-.51-.35-.55-.65l-.13-25.75.7-.38c26.68,6.87,54.52-5.52,65.4-31.07,15.2-35.7-9.82-75.06-48.33-76.78-6.01-.27-11.53.6-17.44,1.35V1.16Z"/>
      <path class="cls-1" d="M62.41,2.86v29.3c-5.44,3.04-11.18,5.71-15.92,9.82-12.43,10.77-19.52,25.85-20.33,42.33v57.09c-.57.15-.66-.24-1-.5-1.39-1.06-3.67-3.54-4.91-4.91C.36,114.12-5.2,82.06,5.01,54.35,14.25,29.27,36.34,9.06,62.41,2.86Z"/>
      <path class="cls-1" d="M62.41,43.85l.02,132.97c-.89,3.28.12,6.87-.35,10.16-.07.51.2.54-.51.5-1.94-.1-6.59-1.83-8.62-2.56-4.9-1.76-10.21-4.25-14.55-7.13-.72-.48-3.12-1.94-3.27-2.48l-.16-90.32c.84-15.05,9.4-30.73,22.27-38.7.68-.42,4.79-2.84,5.18-2.43Z"/>
    </g>
  </g>
</svg>